<?xml version="1.0" encoding="UTF-8"?>
<svg width="35px" height="76px" viewBox="0 0 35 76" version="1.1" xmlns="http://www.w3.org/2000/svg" xmlns:xlink="http://www.w3.org/1999/xlink">
    <!-- Generator: Sketch 53.2 (72643) - https://sketchapp.com -->
    <title>Semi</title>
    <desc>Created with Sketch.</desc>
    <g id="Page-1" stroke="none" stroke-width="1" fill="none" fill-rule="evenodd">
        <g id="iconography-on-dark-copy" transform="translate(-700.000000, -261.000000)">
            <g id="Semi" transform="translate(700.000000, 261.000000)">
                <path d="M10.8106519,18.8593413 C11.5443182,17.6672401 11.9321557,16.3005425 11.9321557,14.9066947 L11.9321557,11.1988173 L23.0474764,11.1988173 L23.0474764,15.1919803 C23.0474764,16.6184083 23.4522871,18.0126737 24.2029267,19.1989272 L30.4940412,29.4562602 C30.6658948,29.7277619 30.7567014,30.0401976 30.7567014,30.3601519 L30.7567014,70.4738968 C30.7567014,71.2220713 30.1066807,71.8230513 29.5165877,71.8230513 C23.9556094,71.8230513 11.0975725,71.8230513 5.61388407,71.8230513 C4.71475775,71.8230513 4.24329862,71.5323792 4.24329862,70.4738968 L4.24329862,30.3350902 C4.24329862,30.0222368 4.33028624,29.7160664 4.50977777,29.4240977 L10.8106519,18.8593413 Z M9.28051841,4.68904265 C9.28051841,4.41294634 9.37811428,4.24461531 9.43497448,4.17694874 L25.4589431,4.17694874 C25.5153789,4.24461531 25.6133991,4.41294634 25.6133991,4.68904265 L25.6133991,6.50935691 C25.6133991,6.78545323 25.5153789,6.95420196 25.4589431,7.02186853 L9.43497448,7.02186853 C9.37811428,6.95420196 9.28051841,6.78545323 9.28051841,6.50935691 L9.28051841,4.68904265 Z M27.8203387,17.0160538 C27.4740856,16.4680381 27.2907751,15.8373188 27.2907751,15.1919803 L27.2907751,10.7974125 C28.7996921,10.0685349 29.8566977,8.42198174 29.8566977,6.50935691 L29.8566977,4.68904265 C29.8566977,2.10351138 27.9276942,0 25.5573876,0 L9.33652995,0 C6.96579901,0 5.03721979,2.10351138 5.03721979,4.68904265 L5.03721979,6.50935691 C5.03721979,8.45873889 6.13368815,10.1328599 7.6888571,10.8395997 L7.6888571,14.9066947 C7.6888571,15.5374139 7.51360886,16.1556023 7.16650704,16.7194904 L0.865632918,27.2846646 C0.299152553,28.2044287 0,29.2591082 0,30.3350902 L0,70.4738968 C0,73.5209809 2.51839773,76 5.61388407,76 L29.3861159,76 C32.4816023,76 35,73.5209809 35,70.4738968 L35,30.3601519 C35,29.2586905 34.6872689,28.1827085 34.1114533,27.2725514 L27.8203387,17.0160538 Z" id="Fill-1-Copy-4" fill="#CE4B27"></path>
                <path d="M9.54545455,19 L31.8181818,30.0833333" id="Line-3" stroke="#CE4B27" stroke-width="3.16666667" stroke-linecap="round" stroke-linejoin="round" fill-rule="nonzero"></path>
                <path d="M1.59090909,30.0833333 L31.8181818,45.9166667" id="Line-3-Copy" stroke="#CE4B27" stroke-width="3.16666667" stroke-linecap="round" stroke-linejoin="round" fill-rule="nonzero"></path>
                <path d="M1.59090909,45.9166667 L31.8181818,61.75" id="Line-3-Copy-2" stroke="#CE4B27" stroke-width="3.16666667" stroke-linecap="round" stroke-linejoin="round" fill-rule="nonzero"></path>
                <path d="M1.58823529,61.75 L27.0784314,74.4166667" id="Line-3-Copy-3" stroke="#CE4B27" stroke-width="3.16666667" stroke-linecap="round" stroke-linejoin="round" fill-rule="nonzero"></path>
            </g>
        </g>
    </g>
</svg>