<?xml version="1.0" encoding="UTF-8"?>
<svg width="67px" height="74px" viewBox="0 0 67 74" version="1.1" xmlns="http://www.w3.org/2000/svg" xmlns:xlink="http://www.w3.org/1999/xlink">
    <!-- Generator: Sketch 53.2 (72643) - https://sketchapp.com -->
    <title>Bean</title>
    <desc>Created with Sketch.</desc>
    <g id="Desktop" stroke="none" stroke-width="1" fill="none" fill-rule="evenodd" stroke-linecap="round" stroke-linejoin="round">
        <g id="The-Roastery-Desktop" transform="translate(-764.000000, -1578.000000)" stroke="#CE4B27" stroke-width="4">
            <g id="Bean" transform="translate(766.000000, 1580.000000)">
                <path d="M31.8691313,42.0731738 C39.1302489,49.9620793 45.2598232,58.6496261 50.812173,67.8014994 C50.9175394,67.9686569 50.9175394,68.1961768 51,68.5490649 C48.4483013,70.2995754 45.5117862,70.0952718 42.694381,69.8120327 C33.7611449,68.9065962 25.55173,65.8048959 18.0661363,60.8319602 C9.84755909,55.3714818 4.53801005,47.6125877 1.36785653,38.3214166 C-0.29051858,33.4506327 -0.59745541,28.4684105 1.32204506,23.5140478 C2.87047265,19.5208408 5.69245902,16.9252563 9.64598864,15.5926395 C11.4921908,14.9657989 13.4208535,14.5896945 15.716008,14 C18.2081518,25.4038563 24.5301343,34.0960464 31.8691313,42.0731738 Z" id="Fill-1"></path>
                <path d="M55.1059913,61.8022231 C53.216671,53.0356147 48.9168385,45.4900862 43.2256101,38.7042373 C39.4376625,34.1834451 35.4542679,29.8350954 31.5732503,25.3981942 C27.1245059,20.3088075 23.3737863,14.7300567 20,8.9369178 C23.7507196,1.03252234 33.0856373,-2.21592321 40.8662864,1.5917956 C46.082858,4.15047078 50.2616995,7.95818959 53.6820208,12.5861759 C61.5976214,23.2869376 64.5898208,35.2274218 62.1979227,48.3843254 C61.2439555,53.6368334 59.0986928,58.4139592 55.6737181,63 C55.3619337,62.3568357 55.1664868,62.0958416 55.1059913,61.8022231 Z" id="Fill-3"></path>
            </g>
        </g>
    </g>
</svg>